<svg width="26" height="24" viewBox="0 0 27 24" fill="none" xmlns="http://www.w3.org/2000/svg">
<path d="M22.0243 21.1266C19.787 22.8844 16.8845 24 13.725 24C9.02355 24 4.8965 21.5906 2.65921 18.075L3.4968 14.4834L7.20948 13.8422C8.07116 16.4296 10.6713 18.3281 13.725 18.3281C15.2064 18.3281 16.5821 17.8922 17.7159 17.1188L21.2836 17.625L22.0243 21.1266Z" fill="#59C36A"/>
<path d="M22.0243 21.1266L21.2836 17.625L17.7159 17.1187C16.5822 17.8922 15.2064 18.3281 13.725 18.3281V24C16.8845 24 19.787 22.8844 22.0243 21.1266Z" fill="#00A66C"/>
<path d="M6.92228 12C6.92228 12.6468 7.0281 13.2656 7.2095 13.8422L2.65923 18.075C1.52544 16.3031 0.825012 14.2218 0.825012 12C0.825012 9.77807 1.52544 7.69686 2.65923 5.92499L6.31119 6.50966L7.2095 10.1578C7.0281 10.7343 6.92228 11.3531 6.92228 12Z" fill="#FFDA2D"/>
<path d="M26.625 12C26.625 15.6562 24.806 18.9328 22.0243 21.1266L17.7159 17.1188C18.5927 16.5281 19.3335 15.7406 19.8172 14.8125H13.725C13.3017 14.8125 12.9691 14.5031 12.9691 14.1094V9.89063C12.9691 9.49683 13.3017 9.1875 13.725 9.1875H25.6575C26.0203 9.1875 26.3378 9.42652 26.3982 9.76402C26.5494 10.4953 26.625 11.2546 26.625 12V12Z" fill="#4086F4"/>
<path d="M19.8173 14.8125C19.3335 15.7406 18.5927 16.5281 17.716 17.1188L22.0243 21.1266C24.806 18.9328 26.625 15.6563 26.625 12C26.625 11.2546 26.5494 10.4953 26.3982 9.76402C26.3378 9.42652 26.0203 9.1875 25.6575 9.1875H13.725V14.8125H19.8173Z" fill="#4175DF"/>
<path d="M22.236 3.35152C22.2511 3.54839 22.1604 3.73125 22.0243 3.87183L18.7892 6.86714C18.5323 7.12027 18.109 7.14839 17.8067 6.93745C16.6123 6.10781 15.2064 5.67188 13.725 5.67188C10.6713 5.67188 8.07116 7.57027 7.20948 10.1578L2.65921 5.925C4.8965 2.40938 9.02355 0 13.725 0C16.7333 0 19.666 1.03125 21.9639 2.8312C22.1301 2.95781 22.2208 3.15464 22.236 3.35152V3.35152Z" fill="#FF7F23"/>
<path d="M17.8067 6.93745C18.109 7.14844 18.5322 7.12027 18.7892 6.86714L22.0243 3.87183C22.1604 3.73125 22.2511 3.54844 22.2359 3.35152C22.2208 3.15459 22.1301 2.95781 21.9638 2.8312C19.6661 1.03125 16.7333 0 13.725 0V5.67188C15.2064 5.67188 16.6123 6.10781 17.8067 6.93745Z" fill="#F03800"/>
</svg>
